<svg width="141" height="18" viewBox="0 0 141 18" fill="none" xmlns="http://www.w3.org/2000/svg">
<path d="M10.56 7.4C10.3067 6.93333 9.94 6.58 9.46 6.34C8.99333 6.08667 8.44 5.96 7.8 5.96C6.69333 5.96 5.80667 6.32667 5.14 7.06C4.47333 7.78 4.14 8.74667 4.14 9.96C4.14 11.2533 4.48667 12.2667 5.18 13C5.88667 13.72 6.85333 14.08 8.08 14.08C8.92 14.08 9.62667 13.8667 10.2 13.44C10.7867 13.0133 11.2133 12.4 11.48 11.6H7.14V9.08H14.58V12.26C14.3267 13.1133 13.8933 13.9067 13.28 14.64C12.68 15.3733 11.9133 15.9667 10.98 16.42C10.0467 16.8733 8.99333 17.1 7.82 17.1C6.43333 17.1 5.19333 16.8 4.1 16.2C3.02 15.5867 2.17333 14.74 1.56 13.66C0.96 12.58 0.66 11.3467 0.66 9.96C0.66 8.57333 0.96 7.34 1.56 6.26C2.17333 5.16667 3.02 4.32 4.1 3.72C5.18 3.10667 6.41333 2.8 7.8 2.8C9.48 2.8 10.8933 3.20667 12.04 4.02C13.2 4.83333 13.9667 5.96 14.34 7.4H10.56ZM15.7944 11.4C15.7944 10.2533 16.0077 9.24667 16.4344 8.38C16.8744 7.51333 17.4677 6.84667 18.2144 6.38C18.961 5.91333 19.7944 5.68 20.7144 5.68C21.501 5.68 22.1877 5.84 22.7744 6.16C23.3744 6.48 23.8344 6.9 24.1544 7.42V5.84H27.5744V17H24.1544V15.42C23.821 15.94 23.3544 16.36 22.7544 16.68C22.1677 17 21.481 17.16 20.6944 17.16C19.7877 17.16 18.961 16.9267 18.2144 16.46C17.4677 15.98 16.8744 15.3067 16.4344 14.44C16.0077 13.56 15.7944 12.5467 15.7944 11.4ZM24.1544 11.42C24.1544 10.5667 23.9144 9.89333 23.4344 9.4C22.9677 8.90667 22.3944 8.66 21.7144 8.66C21.0344 8.66 20.4544 8.90667 19.9744 9.4C19.5077 9.88 19.2744 10.5467 19.2744 11.4C19.2744 12.2533 19.5077 12.9333 19.9744 13.44C20.4544 13.9333 21.0344 14.18 21.7144 14.18C22.3944 14.18 22.9677 13.9333 23.4344 13.44C23.9144 12.9467 24.1544 12.2733 24.1544 11.42ZM40.5686 11.24C40.5686 11.56 40.5486 11.8933 40.5086 12.24H32.7686C32.8219 12.9333 33.0419 13.4667 33.4286 13.84C33.8286 14.2 34.3153 14.38 34.8886 14.38C35.7419 14.38 36.3353 14.02 36.6686 13.3H40.3086C40.1219 14.0333 39.7819 14.6933 39.2886 15.28C38.8086 15.8667 38.2019 16.3267 37.4686 16.66C36.7353 16.9933 35.9153 17.16 35.0086 17.16C33.9153 17.16 32.9419 16.9267 32.0886 16.46C31.2353 15.9933 30.5686 15.3267 30.0886 14.46C29.6086 13.5933 29.3686 12.58 29.3686 11.42C29.3686 10.26 29.6019 9.24667 30.0686 8.38C30.5486 7.51333 31.2153 6.84667 32.0686 6.38C32.9219 5.91333 33.9019 5.68 35.0086 5.68C36.0886 5.68 37.0486 5.90667 37.8886 6.36C38.7286 6.81333 39.3819 7.46 39.8486 8.3C40.3286 9.14 40.5686 10.12 40.5686 11.24ZM37.0686 10.34C37.0686 9.75333 36.8686 9.28667 36.4686 8.94C36.0686 8.59333 35.5686 8.42 34.9686 8.42C34.3953 8.42 33.9086 8.58667 33.5086 8.92C33.1219 9.25333 32.8819 9.72667 32.7886 10.34H37.0686ZM32.9486 4.52C32.5353 4.52 32.1886 4.38 31.9086 4.1C31.6286 3.82 31.4886 3.47333 31.4886 3.06C31.4886 2.64667 31.6286 2.3 31.9086 2.02C32.1886 1.72667 32.5353 1.58 32.9486 1.58C33.3753 1.58 33.7286 1.72 34.0086 2C34.2886 2.28 34.4286 2.63333 34.4286 3.06C34.4286 3.47333 34.2819 3.82 33.9886 4.1C33.7086 4.38 33.3619 4.52 32.9486 4.52ZM36.9486 4.52C36.5353 4.52 36.1886 4.38 35.9086 4.1C35.6286 3.82 35.4886 3.47333 35.4886 3.06C35.4886 2.64667 35.6286 2.3 35.9086 2.02C36.1886 1.72667 36.5353 1.58 36.9486 1.58C37.3753 1.58 37.7286 1.72 38.0086 2C38.2886 2.28 38.4286 2.63333 38.4286 3.06C38.4286 3.47333 38.2819 3.82 37.9886 4.1C37.7086 4.38 37.3619 4.52 36.9486 4.52ZM48.5928 14.1V17H46.8528C45.6128 17 44.6461 16.7 43.9528 16.1C43.2595 15.4867 42.9128 14.4933 42.9128 13.12V8.68H41.5528V5.84H42.9128V3.12H46.3328V5.84H48.5728V8.68H46.3328V13.16C46.3328 13.4933 46.4128 13.7333 46.5728 13.88C46.7328 14.0267 46.9995 14.1 47.3728 14.1H48.5928ZM49.8178 11.4C49.8178 10.2533 50.0311 9.24667 50.4578 8.38C50.8978 7.51333 51.4911 6.84667 52.2378 6.38C52.9845 5.91333 53.8178 5.68 54.7378 5.68C55.5245 5.68 56.2111 5.84 56.7978 6.16C57.3978 6.48 57.8578 6.9 58.1778 7.42V5.84H61.5978V17H58.1778V15.42C57.8445 15.94 57.3778 16.36 56.7778 16.68C56.1911 17 55.5045 17.16 54.7178 17.16C53.8111 17.16 52.9845 16.9267 52.2378 16.46C51.4911 15.98 50.8978 15.3067 50.4578 14.44C50.0311 13.56 49.8178 12.5467 49.8178 11.4ZM58.1778 11.42C58.1778 10.5667 57.9378 9.89333 57.4578 9.4C56.9911 8.90667 56.4178 8.66 55.7378 8.66C55.0578 8.66 54.4778 8.90667 53.9978 9.4C53.5311 9.88 53.2978 10.5467 53.2978 11.4C53.2978 12.2533 53.5311 12.9333 53.9978 13.44C54.4778 13.9333 55.0578 14.18 55.7378 14.18C56.4178 14.18 56.9911 13.9333 57.4578 13.44C57.9378 12.9467 58.1778 12.2733 58.1778 11.42ZM70.872 5.72C72.1787 5.72 73.2187 6.14667 73.992 7C74.7787 7.84 75.172 9 75.172 10.48V17H71.772V10.94C71.772 10.1933 71.5787 9.61333 71.192 9.2C70.8054 8.78667 70.2854 8.58 69.632 8.58C68.9787 8.58 68.4587 8.78667 68.072 9.2C67.6854 9.61333 67.492 10.1933 67.492 10.94V17H64.072V5.84H67.492V7.32C67.8387 6.82667 68.3054 6.44 68.892 6.16C69.4787 5.86667 70.1387 5.72 70.872 5.72ZM91.1069 7.4C90.8535 6.93333 90.4869 6.58 90.0069 6.34C89.5402 6.08667 88.9869 5.96 88.3469 5.96C87.2402 5.96 86.3535 6.32667 85.6869 7.06C85.0202 7.78 84.6869 8.74667 84.6869 9.96C84.6869 11.2533 85.0335 12.2667 85.7269 13C86.4335 13.72 87.4002 14.08 88.6269 14.08C89.4669 14.08 90.1735 13.8667 90.7469 13.44C91.3335 13.0133 91.7602 12.4 92.0269 11.6H87.6869V9.08H95.1269V12.26C94.8735 13.1133 94.4402 13.9067 93.8269 14.64C93.2269 15.3733 92.4602 15.9667 91.5269 16.42C90.5935 16.8733 89.5402 17.1 88.3669 17.1C86.9802 17.1 85.7402 16.8 84.6469 16.2C83.5669 15.5867 82.7202 14.74 82.1069 13.66C81.5069 12.58 81.2069 11.3467 81.2069 9.96C81.2069 8.57333 81.5069 7.34 82.1069 6.26C82.7202 5.16667 83.5669 4.32 84.6469 3.72C85.7269 3.10667 86.9602 2.8 88.3469 2.8C90.0269 2.8 91.4402 3.20667 92.5869 4.02C93.7469 4.83333 94.5135 5.96 94.8869 7.4H91.1069ZM102.101 17.16C101.008 17.16 100.021 16.9267 99.1413 16.46C98.2746 15.9933 97.5879 15.3267 97.0813 14.46C96.5879 13.5933 96.3413 12.58 96.3413 11.42C96.3413 10.2733 96.5946 9.26667 97.1012 8.4C97.6079 7.52 98.3013 6.84667 99.1813 6.38C100.061 5.91333 101.048 5.68 102.141 5.68C103.235 5.68 104.221 5.91333 105.101 6.38C105.981 6.84667 106.675 7.52 107.181 8.4C107.688 9.26667 107.941 10.2733 107.941 11.42C107.941 12.5667 107.681 13.58 107.161 14.46C106.655 15.3267 105.955 15.9933 105.061 16.46C104.181 16.9267 103.195 17.16 102.101 17.16ZM102.101 14.2C102.755 14.2 103.308 13.96 103.761 13.48C104.228 13 104.461 12.3133 104.461 11.42C104.461 10.5267 104.235 9.84 103.781 9.36C103.341 8.88 102.795 8.64 102.141 8.64C101.475 8.64 100.921 8.88 100.481 9.36C100.041 9.82667 99.8213 10.5133 99.8213 11.42C99.8213 12.3133 100.035 13 100.461 13.48C100.901 13.96 101.448 14.2 102.101 14.2ZM113.176 7.42C113.496 6.9 113.956 6.48 114.556 6.16C115.156 5.84 115.842 5.68 116.616 5.68C117.536 5.68 118.369 5.91333 119.116 6.38C119.862 6.84667 120.449 7.51333 120.876 8.38C121.316 9.24667 121.536 10.2533 121.536 11.4C121.536 12.5467 121.316 13.56 120.876 14.44C120.449 15.3067 119.862 15.98 119.116 16.46C118.369 16.9267 117.536 17.16 116.616 17.16C115.829 17.16 115.142 17.0067 114.556 16.7C113.969 16.38 113.509 15.96 113.176 15.44V17H109.756V2.2H113.176V7.42ZM118.056 11.4C118.056 10.5467 117.816 9.88 117.336 9.4C116.869 8.90667 116.289 8.66 115.596 8.66C114.916 8.66 114.336 8.90667 113.856 9.4C113.389 9.89333 113.156 10.5667 113.156 11.42C113.156 12.2733 113.389 12.9467 113.856 13.44C114.336 13.9333 114.916 14.18 115.596 14.18C116.276 14.18 116.856 13.9333 117.336 13.44C117.816 12.9333 118.056 12.2533 118.056 11.4ZM125.05 4.68C124.45 4.68 123.957 4.50667 123.57 4.16C123.197 3.8 123.01 3.36 123.01 2.84C123.01 2.30667 123.197 1.86667 123.57 1.52C123.957 1.16 124.45 0.979999 125.05 0.979999C125.637 0.979999 126.117 1.16 126.49 1.52C126.877 1.86667 127.07 2.30667 127.07 2.84C127.07 3.36 126.877 3.8 126.49 4.16C126.117 4.50667 125.637 4.68 125.05 4.68ZM126.75 5.84V17H123.33V5.84H126.75ZM136.028 5.72C137.335 5.72 138.375 6.14667 139.148 7C139.935 7.84 140.328 9 140.328 10.48V17H136.928V10.94C136.928 10.1933 136.735 9.61333 136.348 9.2C135.962 8.78667 135.442 8.58 134.788 8.58C134.135 8.58 133.615 8.78667 133.228 9.2C132.842 9.61333 132.648 10.1933 132.648 10.94V17H129.228V5.84H132.648V7.32C132.995 6.82667 133.462 6.44 134.048 6.16C134.635 5.86667 135.295 5.72 136.028 5.72Z" fill="black"/>
</svg>
