<svg width="20" height="20" viewBox="0 0 20 20" fill="none" xmlns="http://www.w3.org/2000/svg">
<path d="M10.8333 17.5V19.5833L8.33333 17.9167L5.83333 19.5833V17.5H5.41667C3.80583 17.5 2.5 16.1942 2.5 14.5833V4.16667C2.5 2.78596 3.61929 1.66667 5 1.66667H16.6667C17.1269 1.66667 17.5 2.03977 17.5 2.5V16.6667C17.5 17.1269 17.1269 17.5 16.6667 17.5H10.8333ZM10.8333 15.8333H15.8333V13.3333H5.41667C4.72631 13.3333 4.16667 13.893 4.16667 14.5833C4.16667 15.2737 4.72631 15.8333 5.41667 15.8333H5.83333V14.1667H10.8333V15.8333ZM15.8333 11.6667V3.33333H5V11.6962C5.13608 11.6767 5.2752 11.6667 5.41667 11.6667H15.8333ZM5.83333 4.16667H7.5V5.83333H5.83333V4.16667ZM5.83333 6.66667H7.5V8.33333H5.83333V6.66667ZM5.83333 9.16667H7.5V10.8333H5.83333V9.16667Z" fill="black"/>
</svg>
